<?xml version="1.0" encoding="iso-8859-1"?>
<!-- Generator: Adobe Illustrator 26.5.3, SVG Export Plug-In . SVG Version: 6.00 Build 0)  -->
<svg version="1.1" id="Capa_1" xmlns="http://www.w3.org/2000/svg" xmlns:xlink="http://www.w3.org/1999/xlink" x="0px" y="0px"
	 viewBox="0 0 510 510" style="enable-background:new 0 0 510 510;" xml:space="preserve">
<g>
	<g>
		<path style="fill:#FFFFFF;" d="M456,500H54c-24.301,0-44-19.699-44-44v-44h490v44C500,480.301,480.301,500,456,500z"/>
		<path style="fill:#D2DCFD;" d="M440,127H70c-22.091,0-40,17.909-40,40v245h450V167C480,144.909,462.092,127,440,127z"/>
		<path style="fill:#93B2F4;" d="M154.398,239.049c0-40.037,8.869-77.997,24.723-112.049H70c-22.091,0-40,17.909-40,40v245h188.372
			C178.498,365.512,154.398,305.098,154.398,239.049z"/>
		<path style="fill:#93B2F4;" d="M294.314,456h-78.627c-12.15,0-22-9.85-22-22v-22h122.627v22
			C316.314,446.151,306.464,456,294.314,456z"/>
		<g>
			<path style="fill:#FFFFFF;" d="M82.249,357.149l58.564-1.502L187.739,368H436V171H163.205l-45.201,7.828l-39.508-3.754
				l4.88,141.906L82.249,357.149z M440,171h0.01H440z"/>
		</g>
		<path style="fill:#D2DCFD;" d="M154.398,239.049c0-23.524,3.07-46.328,8.807-68.049H74v197h113.739
			C166.507,329.808,154.398,285.846,154.398,239.049z"/>
		<g>
			<path style="fill:#FDCB50;" d="M284.173,280.321c0-19.696-12.047-36.575-29.173-43.679
				c-17.126,7.104-29.173,23.984-29.173,43.679S237.874,316.896,255,324C272.126,316.896,284.173,300.017,284.173,280.321z"/>
			<polygon id="XMLID_667_" style="fill:#67CCD1;" points="339,262.353 391.997,262.353 391.997,197.887 339,171 			"/>
			<path id="XMLID_656_" style="fill:#FD7DA0;" d="M339,262.353l0-113.527C339,90.529,306.641,37.05,255,10l0,0l0,0
				c-51.641,27.05-84,80.529-84,138.826l0,113.527H339z"/>
			<rect x="171" y="214.353" style="fill:#FFFFFF;" width="168" height="48"/>
			<polygon id="XMLID_657_" style="fill:#67CCD1;" points="171,262.353 118.003,262.353 118.003,197.887 171,171 			"/>
			<circle id="XMLID_658_" style="fill:#FFFFFF;" cx="255" cy="132.2" r="28"/>
		</g>
	</g>
	<path style="fill:#052A75;" d="M500,402h-10V167c0-27.57-22.43-50-50-50h-94.059c-9.504-49.233-40.767-92.007-86.301-115.858
		c-2.906-1.522-6.374-1.522-9.28,0C204.826,24.993,173.563,67.767,164.059,117H70c-27.57,0-50,22.43-50,50v235H10
		c-5.523,0-10,4.477-10,10v44c0,29.776,24.224,54,54,54h402c29.776,0,54-24.224,54-54v-44C510,406.477,505.523,402,500,402z
		 M349,187.287l32.997,16.741v48.326H349V187.287z M181,148.826c0-52.991,28.219-101.338,74-127.431
		c45.781,26.093,74,74.44,74,127.431v103.527H181V148.826z M128.003,252.353v-48.326L161,187.287v65.066H128.003z M40,167
		c0-16.542,13.458-30,30-30h91.418c-0.275,3.916-0.418,7.859-0.418,11.826v16.034l-47.521,24.109
		c-3.359,1.704-5.476,5.151-5.476,8.918v64.466c0,5.523,4.477,10,10,10h273.994c5.523,0,10-4.477,10-10v-64.466
		c0-3.767-2.117-7.214-5.476-8.918L349,164.86v-16.034c0-3.967-0.143-7.911-0.418-11.826H440c16.542,0,30,13.458,30,30v235H40V167z
		 M490,456c0,18.748-15.252,34-34,34H54c-18.748,0-34-15.252-34-34v-34h470V456z"/>
</g>
<g>
</g>
<g>
</g>
<g>
</g>
<g>
</g>
<g>
</g>
<g>
</g>
<g>
</g>
<g>
</g>
<g>
</g>
<g>
</g>
<g>
</g>
<g>
</g>
<g>
</g>
<g>
</g>
<g>
</g>
</svg>
